<mxfile host="app.diagrams.net" modified="2023-02-19T05:55:02.833Z" agent="5.0 (Windows NT 10.0; Win64; x64) AppleWebKit/537.36 (KHTML, like Gecko) Chrome/110.0.0.0 Safari/537.36" etag="WaFOXg1mDZ39U5MHN1-w" version="20.8.20" type="github">
  <diagram id="NiAK85DJf5zLJbzDnwLv" name="第 1 页">
    <mxGraphModel dx="2327" dy="1953" grid="1" gridSize="10" guides="1" tooltips="1" connect="1" arrows="1" fold="1" page="1" pageScale="1" pageWidth="827" pageHeight="1169" math="0" shadow="0">
      <root>
        <mxCell id="0" />
        <mxCell id="1" parent="0" />
        <mxCell id="IjzishjyidC8sh-iXdDE-1" value="" style="rounded=1;whiteSpace=wrap;html=1;dashed=1;strokeWidth=3;" parent="1" vertex="1">
          <mxGeometry x="-780" y="-1075" width="460" height="150" as="geometry" />
        </mxCell>
        <mxCell id="IjzishjyidC8sh-iXdDE-2" value="&lt;b style=&quot;font-size: 28px;&quot;&gt;US&amp;nbsp; may&amp;nbsp; &lt;i&gt;&lt;font style=&quot;font-size: 28px;&quot; color=&quot;#3399ff&quot;&gt;drop&lt;/font&gt;&lt;/i&gt;&amp;nbsp; tariffs&amp;nbsp; on&amp;nbsp; China&lt;/b&gt;" style="text;html=1;strokeColor=none;fillColor=none;align=center;verticalAlign=middle;whiteSpace=wrap;rounded=0;fontSize=29;" parent="1" vertex="1">
          <mxGeometry x="-770" y="-965" width="440" height="30" as="geometry" />
        </mxCell>
        <mxCell id="IjzishjyidC8sh-iXdDE-6" value="" style="endArrow=classic;html=1;rounded=1;fontSize=29;entryX=0.07;entryY=-0.013;entryDx=0;entryDy=0;entryPerimeter=0;strokeWidth=3;" parent="1" edge="1">
          <mxGeometry width="50" height="50" relative="1" as="geometry">
            <mxPoint x="-605" y="-965" as="sourcePoint" />
            <mxPoint x="-744.1999999999999" y="-965.3899999999999" as="targetPoint" />
            <Array as="points">
              <mxPoint x="-605" y="-1055" />
              <mxPoint x="-744" y="-1055" />
            </Array>
          </mxGeometry>
        </mxCell>
        <mxCell id="IjzishjyidC8sh-iXdDE-7" value="" style="endArrow=classic;html=1;rounded=1;fontSize=29;entryX=0.199;entryY=0.067;entryDx=0;entryDy=0;entryPerimeter=0;strokeWidth=3;" parent="1" edge="1">
          <mxGeometry width="50" height="50" relative="1" as="geometry">
            <mxPoint x="-615" y="-965" as="sourcePoint" />
            <mxPoint x="-685.44" y="-962.99" as="targetPoint" />
            <Array as="points">
              <mxPoint x="-615" y="-1035" />
              <mxPoint x="-685" y="-1035" />
            </Array>
          </mxGeometry>
        </mxCell>
        <mxCell id="IjzishjyidC8sh-iXdDE-8" value="" style="endArrow=classic;html=1;rounded=1;fontSize=29;entryX=0.72;entryY=0.04;entryDx=0;entryDy=0;entryPerimeter=0;strokeWidth=3;" parent="1" target="IjzishjyidC8sh-iXdDE-2" edge="1">
          <mxGeometry width="50" height="50" relative="1" as="geometry">
            <mxPoint x="-594" y="-965" as="sourcePoint" />
            <mxPoint x="-460" y="-965" as="targetPoint" />
            <Array as="points">
              <mxPoint x="-594" y="-1055" />
              <mxPoint x="-453" y="-1055" />
            </Array>
          </mxGeometry>
        </mxCell>
        <mxCell id="IjzishjyidC8sh-iXdDE-9" value="" style="endArrow=classic;html=1;rounded=1;fontSize=29;entryX=0.579;entryY=0.016;entryDx=0;entryDy=0;entryPerimeter=0;strokeWidth=3;" parent="1" edge="1">
          <mxGeometry width="50" height="50" relative="1" as="geometry">
            <mxPoint x="-584" y="-965" as="sourcePoint" />
            <mxPoint x="-519.24" y="-964.52" as="targetPoint" />
            <Array as="points">
              <mxPoint x="-584" y="-1035" />
              <mxPoint x="-520" y="-1035" />
            </Array>
          </mxGeometry>
        </mxCell>
        <mxCell id="IjzishjyidC8sh-iXdDE-10" value="" style="endArrow=classic;html=1;rounded=1;fontSize=29;entryX=0.89;entryY=-0.022;entryDx=0;entryDy=0;entryPerimeter=0;strokeWidth=3;" parent="1" edge="1">
          <mxGeometry width="50" height="50" relative="1" as="geometry">
            <mxPoint x="-442" y="-966" as="sourcePoint" />
            <mxPoint x="-376.4000000000001" y="-965.6599999999999" as="targetPoint" />
            <Array as="points">
              <mxPoint x="-442" y="-1055" />
              <mxPoint x="-376" y="-1055" />
            </Array>
          </mxGeometry>
        </mxCell>
        <mxCell id="IjzishjyidC8sh-iXdDE-11" value="" style="shape=flexArrow;endArrow=classic;html=1;rounded=1;fontSize=29;fontColor=#3399FF;exitX=1;exitY=0.5;exitDx=0;exitDy=0;" parent="1" edge="1">
          <mxGeometry width="50" height="50" relative="1" as="geometry">
            <mxPoint x="-476" y="-830.4200000000001" as="sourcePoint" />
            <mxPoint x="-430" y="-831" as="targetPoint" />
          </mxGeometry>
        </mxCell>
        <mxCell id="IjzishjyidC8sh-iXdDE-13" value="" style="rounded=1;whiteSpace=wrap;html=1;fontSize=29;fontColor=#3399FF;strokeWidth=3;" parent="1" vertex="1">
          <mxGeometry x="-218" y="-895" width="148" height="135" as="geometry" />
        </mxCell>
        <mxCell id="IjzishjyidC8sh-iXdDE-16" value="" style="rounded=1;whiteSpace=wrap;html=1;fontSize=28;fontColor=#000000;strokeWidth=3;" parent="1" vertex="1">
          <mxGeometry x="-710" y="-727" width="320" height="100" as="geometry" />
        </mxCell>
        <mxCell id="IjzishjyidC8sh-iXdDE-22" value="&lt;font face=&quot;Times New Roman&quot; size=&quot;1&quot; style=&quot;&quot; color=&quot;#000000&quot;&gt;&lt;b style=&quot;font-size: 25px;&quot;&gt;Dependency Parser&lt;/b&gt;&lt;/font&gt;" style="text;strokeColor=none;fillColor=none;align=center;verticalAlign=middle;spacingLeft=4;spacingRight=4;overflow=hidden;points=[[0,0.5],[1,0.5]];portConstraint=eastwest;rotatable=0;whiteSpace=wrap;html=1;fontSize=29;fontColor=#3399FF;" parent="1" vertex="1">
          <mxGeometry x="-660" y="-727" width="220" height="100" as="geometry" />
        </mxCell>
        <mxCell id="IjzishjyidC8sh-iXdDE-25" value="" style="endArrow=classic;html=1;rounded=1;fontSize=28;fontColor=#000000;strokeWidth=3;exitX=0.5;exitY=1;exitDx=0;exitDy=0;entryX=0.5;entryY=0;entryDx=0;entryDy=0;" parent="1" edge="1" target="WX6rTb_KlcT80gJSK_jm-60" source="IjzishjyidC8sh-iXdDE-13">
          <mxGeometry width="50" height="50" relative="1" as="geometry">
            <mxPoint x="49" y="-710" as="sourcePoint" />
            <mxPoint x="109" y="-710" as="targetPoint" />
          </mxGeometry>
        </mxCell>
        <mxCell id="WX6rTb_KlcT80gJSK_jm-2" value="&lt;span style=&quot;font-size: 28px;&quot;&gt;US&amp;nbsp; may&amp;nbsp; &lt;font style=&quot;font-size: 28px;&quot; color=&quot;#3399ff&quot;&gt;drop&lt;/font&gt;&amp;nbsp; tariffs&amp;nbsp; on&amp;nbsp; China&lt;/span&gt;" style="text;html=1;strokeColor=none;fillColor=none;align=center;verticalAlign=middle;whiteSpace=wrap;rounded=0;fontSize=29;" vertex="1" parent="1">
          <mxGeometry x="-770" y="-521" width="440" height="30" as="geometry" />
        </mxCell>
        <mxCell id="WX6rTb_KlcT80gJSK_jm-3" value="" style="rounded=0;whiteSpace=wrap;html=1;dashed=1;strokeWidth=3;" vertex="1" parent="1">
          <mxGeometry x="-750" y="-583" width="400" height="60" as="geometry" />
        </mxCell>
        <mxCell id="WX6rTb_KlcT80gJSK_jm-4" value="" style="rounded=0;whiteSpace=wrap;html=1;strokeWidth=2;rotation=90;" vertex="1" parent="1">
          <mxGeometry x="-747" y="-568" width="50" height="30" as="geometry" />
        </mxCell>
        <mxCell id="WX6rTb_KlcT80gJSK_jm-14" value="" style="ellipse;whiteSpace=wrap;html=1;aspect=fixed;strokeWidth=2;fillColor=#000000;" vertex="1" parent="1">
          <mxGeometry x="-732" y="-575" width="20" height="20" as="geometry" />
        </mxCell>
        <mxCell id="WX6rTb_KlcT80gJSK_jm-23" value="" style="ellipse;whiteSpace=wrap;html=1;aspect=fixed;strokeWidth=2;fillColor=#000000;" vertex="1" parent="1">
          <mxGeometry x="-732" y="-550" width="20" height="20" as="geometry" />
        </mxCell>
        <mxCell id="WX6rTb_KlcT80gJSK_jm-25" value="" style="rounded=0;whiteSpace=wrap;html=1;strokeWidth=2;rotation=90;" vertex="1" parent="1">
          <mxGeometry x="-688" y="-568" width="50" height="30" as="geometry" />
        </mxCell>
        <mxCell id="WX6rTb_KlcT80gJSK_jm-26" value="" style="ellipse;whiteSpace=wrap;html=1;aspect=fixed;strokeWidth=2;fillColor=#000000;" vertex="1" parent="1">
          <mxGeometry x="-673" y="-575" width="20" height="20" as="geometry" />
        </mxCell>
        <mxCell id="WX6rTb_KlcT80gJSK_jm-27" value="" style="ellipse;whiteSpace=wrap;html=1;aspect=fixed;strokeWidth=2;fillColor=#000000;" vertex="1" parent="1">
          <mxGeometry x="-673" y="-550" width="20" height="20" as="geometry" />
        </mxCell>
        <mxCell id="WX6rTb_KlcT80gJSK_jm-31" value="" style="rounded=0;whiteSpace=wrap;html=1;strokeWidth=2;rotation=90;" vertex="1" parent="1">
          <mxGeometry x="-548" y="-568" width="50" height="30" as="geometry" />
        </mxCell>
        <mxCell id="WX6rTb_KlcT80gJSK_jm-32" value="" style="ellipse;whiteSpace=wrap;html=1;aspect=fixed;strokeWidth=2;fillColor=#000000;" vertex="1" parent="1">
          <mxGeometry x="-533" y="-575" width="20" height="20" as="geometry" />
        </mxCell>
        <mxCell id="WX6rTb_KlcT80gJSK_jm-33" value="" style="ellipse;whiteSpace=wrap;html=1;aspect=fixed;strokeWidth=2;fillColor=#000000;" vertex="1" parent="1">
          <mxGeometry x="-533" y="-550" width="20" height="20" as="geometry" />
        </mxCell>
        <mxCell id="WX6rTb_KlcT80gJSK_jm-37" value="" style="rounded=0;whiteSpace=wrap;html=1;strokeWidth=2;rotation=90;" vertex="1" parent="1">
          <mxGeometry x="-413" y="-568.5" width="50" height="30" as="geometry" />
        </mxCell>
        <mxCell id="WX6rTb_KlcT80gJSK_jm-38" value="" style="ellipse;whiteSpace=wrap;html=1;aspect=fixed;strokeWidth=2;fillColor=#000000;" vertex="1" parent="1">
          <mxGeometry x="-398" y="-575.5" width="20" height="20" as="geometry" />
        </mxCell>
        <mxCell id="WX6rTb_KlcT80gJSK_jm-39" value="" style="ellipse;whiteSpace=wrap;html=1;aspect=fixed;strokeWidth=2;fillColor=#000000;" vertex="1" parent="1">
          <mxGeometry x="-398" y="-550.5" width="20" height="20" as="geometry" />
        </mxCell>
        <mxCell id="WX6rTb_KlcT80gJSK_jm-40" value="" style="rounded=0;whiteSpace=wrap;html=1;strokeWidth=2;rotation=90;" vertex="1" parent="1">
          <mxGeometry x="-479" y="-568" width="50" height="30" as="geometry" />
        </mxCell>
        <mxCell id="WX6rTb_KlcT80gJSK_jm-41" value="" style="ellipse;whiteSpace=wrap;html=1;aspect=fixed;strokeWidth=2;fillColor=#000000;" vertex="1" parent="1">
          <mxGeometry x="-464" y="-575" width="20" height="20" as="geometry" />
        </mxCell>
        <mxCell id="WX6rTb_KlcT80gJSK_jm-42" value="" style="ellipse;whiteSpace=wrap;html=1;aspect=fixed;strokeWidth=2;fillColor=#000000;" vertex="1" parent="1">
          <mxGeometry x="-464" y="-550" width="20" height="20" as="geometry" />
        </mxCell>
        <mxCell id="WX6rTb_KlcT80gJSK_jm-43" value="" style="rounded=0;whiteSpace=wrap;html=1;strokeWidth=2;rotation=90;" vertex="1" parent="1">
          <mxGeometry x="-620" y="-568" width="50" height="30" as="geometry" />
        </mxCell>
        <mxCell id="WX6rTb_KlcT80gJSK_jm-44" value="" style="ellipse;whiteSpace=wrap;html=1;aspect=fixed;strokeWidth=2;fillColor=#3399FF;strokeColor=#3399FF;" vertex="1" parent="1">
          <mxGeometry x="-605" y="-575" width="20" height="20" as="geometry" />
        </mxCell>
        <mxCell id="WX6rTb_KlcT80gJSK_jm-45" value="" style="ellipse;whiteSpace=wrap;html=1;aspect=fixed;strokeWidth=2;fillColor=#3399FF;strokeColor=#3399FF;" vertex="1" parent="1">
          <mxGeometry x="-605" y="-550" width="20" height="20" as="geometry" />
        </mxCell>
        <mxCell id="WX6rTb_KlcT80gJSK_jm-46" value="" style="rounded=1;whiteSpace=wrap;html=1;fontSize=29;fontColor=#3399FF;strokeWidth=3;" vertex="1" parent="1">
          <mxGeometry x="-610" y="-882" width="120" height="110" as="geometry" />
        </mxCell>
        <mxCell id="WX6rTb_KlcT80gJSK_jm-47" value="&lt;font face=&quot;Times New Roman&quot; size=&quot;1&quot; style=&quot;&quot; color=&quot;#000000&quot;&gt;&lt;b style=&quot;font-size: 23px;&quot;&gt;Probability Matrix&lt;/b&gt;&lt;/font&gt;" style="text;strokeColor=none;fillColor=none;align=center;verticalAlign=middle;spacingLeft=4;spacingRight=4;overflow=hidden;points=[[0,0.5],[1,0.5]];portConstraint=eastwest;rotatable=0;whiteSpace=wrap;html=1;fontSize=29;fontColor=#3399FF;strokeWidth=4;" vertex="1" parent="1">
          <mxGeometry x="-610" y="-876" width="120" height="92" as="geometry" />
        </mxCell>
        <mxCell id="WX6rTb_KlcT80gJSK_jm-48" value="" style="shape=flexArrow;endArrow=classic;html=1;rounded=1;fontSize=29;fontColor=#3399FF;" edge="1" parent="1">
          <mxGeometry width="50" height="50" relative="1" as="geometry">
            <mxPoint x="-551" y="-887" as="sourcePoint" />
            <mxPoint x="-550.71" y="-923" as="targetPoint" />
          </mxGeometry>
        </mxCell>
        <mxCell id="WX6rTb_KlcT80gJSK_jm-49" value="" style="shape=flexArrow;endArrow=classic;html=1;rounded=1;fontSize=29;fontColor=#3399FF;" edge="1" parent="1">
          <mxGeometry width="50" height="50" relative="1" as="geometry">
            <mxPoint x="-550.71" y="-734" as="sourcePoint" />
            <mxPoint x="-550.4200000000001" y="-770" as="targetPoint" />
          </mxGeometry>
        </mxCell>
        <mxCell id="WX6rTb_KlcT80gJSK_jm-50" value="" style="shape=flexArrow;endArrow=classic;html=1;rounded=1;fontSize=29;fontColor=#3399FF;" edge="1" parent="1">
          <mxGeometry width="50" height="50" relative="1" as="geometry">
            <mxPoint x="-551" y="-887" as="sourcePoint" />
            <mxPoint x="-550.71" y="-923" as="targetPoint" />
          </mxGeometry>
        </mxCell>
        <mxCell id="WX6rTb_KlcT80gJSK_jm-51" value="" style="shape=flexArrow;endArrow=classic;html=1;rounded=1;fontSize=29;fontColor=#3399FF;" edge="1" parent="1">
          <mxGeometry width="50" height="50" relative="1" as="geometry">
            <mxPoint x="-550.71" y="-589" as="sourcePoint" />
            <mxPoint x="-550.4200000000001" y="-625" as="targetPoint" />
          </mxGeometry>
        </mxCell>
        <mxCell id="WX6rTb_KlcT80gJSK_jm-69" style="edgeStyle=orthogonalEdgeStyle;orthogonalLoop=1;jettySize=auto;html=1;fontFamily=Times New Roman;fontSize=21;exitX=1;exitY=0.5;exitDx=0;exitDy=0;rounded=1;strokeWidth=3;entryX=0.5;entryY=0;entryDx=0;entryDy=0;" edge="1" parent="1" target="WX6rTb_KlcT80gJSK_jm-64">
          <mxGeometry relative="1" as="geometry">
            <mxPoint x="-68" y="-825" as="sourcePoint" />
            <mxPoint x="5" y="-730" as="targetPoint" />
          </mxGeometry>
        </mxCell>
        <mxCell id="WX6rTb_KlcT80gJSK_jm-53" value="" style="rounded=1;whiteSpace=wrap;html=1;fontSize=29;fontColor=#3399FF;strokeWidth=3;" vertex="1" parent="1">
          <mxGeometry x="-218" y="-632.5" width="148" height="135" as="geometry" />
        </mxCell>
        <mxCell id="WX6rTb_KlcT80gJSK_jm-57" value="" style="rounded=1;whiteSpace=wrap;html=1;fontSize=29;fontColor=#3399FF;strokeWidth=3;" vertex="1" parent="1">
          <mxGeometry x="-412" y="-882.5" width="120" height="110" as="geometry" />
        </mxCell>
        <mxCell id="WX6rTb_KlcT80gJSK_jm-58" value="&lt;font face=&quot;Times New Roman&quot; size=&quot;1&quot; style=&quot;&quot; color=&quot;#000000&quot;&gt;&lt;b style=&quot;font-size: 34px;&quot;&gt;SGN&lt;/b&gt;&lt;/font&gt;" style="text;strokeColor=none;fillColor=none;align=center;verticalAlign=middle;spacingLeft=4;spacingRight=4;overflow=hidden;points=[[0,0.5],[1,0.5]];portConstraint=eastwest;rotatable=0;whiteSpace=wrap;html=1;fontSize=29;fontColor=#3399FF;strokeWidth=4;" vertex="1" parent="1">
          <mxGeometry x="-412" y="-876.5" width="120" height="92" as="geometry" />
        </mxCell>
        <mxCell id="WX6rTb_KlcT80gJSK_jm-59" value="" style="shape=flexArrow;endArrow=classic;html=1;rounded=1;fontSize=29;fontColor=#3399FF;exitX=1;exitY=0.5;exitDx=0;exitDy=0;" edge="1" parent="1">
          <mxGeometry width="50" height="50" relative="1" as="geometry">
            <mxPoint x="-280" y="-827.1300000000001" as="sourcePoint" />
            <mxPoint x="-234" y="-827.71" as="targetPoint" />
          </mxGeometry>
        </mxCell>
        <mxCell id="WX6rTb_KlcT80gJSK_jm-60" value="" style="rounded=0;whiteSpace=wrap;html=1;strokeColor=#000000;strokeWidth=3;fontFamily=Times New Roman;fontSize=34;fillColor=none;gradientColor=default;" vertex="1" parent="1">
          <mxGeometry x="-203" y="-727" width="120" height="60" as="geometry" />
        </mxCell>
        <mxCell id="WX6rTb_KlcT80gJSK_jm-61" value="" style="endArrow=classic;html=1;rounded=1;fontSize=28;fontColor=#000000;strokeWidth=3;entryX=0.5;entryY=1;entryDx=0;entryDy=0;exitX=0.5;exitY=0;exitDx=0;exitDy=0;" edge="1" parent="1" source="WX6rTb_KlcT80gJSK_jm-53" target="WX6rTb_KlcT80gJSK_jm-60">
          <mxGeometry width="50" height="50" relative="1" as="geometry">
            <mxPoint x="69" y="-650" as="sourcePoint" />
            <mxPoint x="-133" y="-717" as="targetPoint" />
          </mxGeometry>
        </mxCell>
        <mxCell id="WX6rTb_KlcT80gJSK_jm-62" value="&lt;p style=&quot;line-height: 60%;&quot;&gt;&lt;font style=&quot;font-size: 20px;&quot;&gt;&lt;b&gt;Differential&lt;br&gt;&lt;/b&gt;&lt;/font&gt;&lt;font style=&quot;font-size: 20px;&quot;&gt;&lt;b&gt;Regularizer&lt;/b&gt;&lt;/font&gt;&lt;/p&gt;" style="text;html=1;strokeColor=none;fillColor=none;align=center;verticalAlign=middle;whiteSpace=wrap;rounded=0;fontSize=34;fontFamily=Times New Roman;" vertex="1" parent="1">
          <mxGeometry x="-231.5" y="-739" width="177" height="80" as="geometry" />
        </mxCell>
        <mxCell id="WX6rTb_KlcT80gJSK_jm-64" value="" style="rounded=0;whiteSpace=wrap;html=1;strokeColor=#000000;strokeWidth=3;fontFamily=Times New Roman;fontSize=34;fillColor=none;gradientColor=default;" vertex="1" parent="1">
          <mxGeometry x="-54.5" y="-725" width="120" height="60" as="geometry" />
        </mxCell>
        <mxCell id="WX6rTb_KlcT80gJSK_jm-65" value="&lt;p style=&quot;line-height: 60%;&quot;&gt;&lt;b style=&quot;&quot;&gt;&lt;font style=&quot;font-size: 28px;&quot;&gt;BiAffine&lt;/font&gt;&lt;/b&gt;&lt;/p&gt;" style="text;html=1;strokeColor=none;fillColor=none;align=center;verticalAlign=middle;whiteSpace=wrap;rounded=0;fontSize=34;fontFamily=Times New Roman;" vertex="1" parent="1">
          <mxGeometry x="-83" y="-737" width="177" height="80" as="geometry" />
        </mxCell>
        <mxCell id="WX6rTb_KlcT80gJSK_jm-72" value="&lt;div&gt;dependency&amp;nbsp;&lt;span style=&quot;background-color: initial;&quot;&gt;tree&lt;/span&gt;&lt;/div&gt;" style="text;html=1;strokeColor=none;fillColor=none;align=center;verticalAlign=middle;whiteSpace=wrap;rounded=0;fontSize=28;fontFamily=Times New Roman;" vertex="1" parent="1">
          <mxGeometry x="-650" y="-1111" width="200" height="30" as="geometry" />
        </mxCell>
        <mxCell id="WX6rTb_KlcT80gJSK_jm-73" value="" style="rounded=0;whiteSpace=wrap;html=1;strokeColor=#000000;strokeWidth=3;fontFamily=Times New Roman;fontSize=34;fillColor=none;gradientColor=default;" vertex="1" parent="1">
          <mxGeometry x="-240.25" y="-1045" width="192.5" height="90" as="geometry" />
        </mxCell>
        <mxCell id="WX6rTb_KlcT80gJSK_jm-78" value="" style="endArrow=classic;html=1;rounded=1;strokeWidth=3;fontFamily=Times New Roman;fontSize=28;entryX=1;entryY=0.5;entryDx=0;entryDy=0;exitX=1;exitY=0.5;exitDx=0;exitDy=0;" edge="1" parent="1" source="WX6rTb_KlcT80gJSK_jm-64" target="WX6rTb_KlcT80gJSK_jm-73">
          <mxGeometry width="50" height="50" relative="1" as="geometry">
            <mxPoint x="70" y="-690" as="sourcePoint" />
            <mxPoint x="115.5" y="-739" as="targetPoint" />
            <Array as="points">
              <mxPoint x="140" y="-695" />
              <mxPoint x="140" y="-1000" />
            </Array>
          </mxGeometry>
        </mxCell>
        <mxCell id="WX6rTb_KlcT80gJSK_jm-80" value="&lt;font style=&quot;font-size: 25px;&quot;&gt;&lt;b&gt;Syntax-enriched&lt;br&gt;Embeddings&lt;/b&gt;&lt;/font&gt;" style="text;html=1;strokeColor=none;fillColor=none;align=center;verticalAlign=middle;whiteSpace=wrap;rounded=0;fontSize=28;fontFamily=Times New Roman;" vertex="1" parent="1">
          <mxGeometry x="-259" y="-1030" width="230" height="60" as="geometry" />
        </mxCell>
        <mxCell id="WX6rTb_KlcT80gJSK_jm-81" value="&lt;b style=&quot;font-size: 25px;&quot;&gt;Contextual&lt;br&gt;Event&lt;br&gt;Embeddings&lt;/b&gt;" style="text;html=1;strokeColor=none;fillColor=none;align=center;verticalAlign=middle;whiteSpace=wrap;rounded=0;fontSize=23;fontFamily=Times New Roman;" vertex="1" parent="1">
          <mxGeometry x="-224" y="-615" width="160" height="100" as="geometry" />
        </mxCell>
        <mxCell id="WX6rTb_KlcT80gJSK_jm-82" value="&lt;b style=&quot;font-size: 25px;&quot;&gt;SK-based&lt;br&gt;Event&lt;br&gt;Embeddings&lt;/b&gt;" style="text;html=1;strokeColor=none;fillColor=none;align=center;verticalAlign=middle;whiteSpace=wrap;rounded=0;fontSize=23;fontFamily=Times New Roman;" vertex="1" parent="1">
          <mxGeometry x="-223" y="-880" width="160" height="100" as="geometry" />
        </mxCell>
        <mxCell id="WX6rTb_KlcT80gJSK_jm-83" value="" style="endArrow=classic;html=1;rounded=1;strokeWidth=3;fontFamily=Times New Roman;fontSize=25;exitX=1;exitY=0.5;exitDx=0;exitDy=0;entryX=0.5;entryY=1;entryDx=0;entryDy=0;" edge="1" parent="1" source="WX6rTb_KlcT80gJSK_jm-53" target="WX6rTb_KlcT80gJSK_jm-64">
          <mxGeometry width="50" height="50" relative="1" as="geometry">
            <mxPoint x="-350" y="-560" as="sourcePoint" />
            <mxPoint x="10" y="-660" as="targetPoint" />
            <Array as="points">
              <mxPoint x="6" y="-565" />
            </Array>
          </mxGeometry>
        </mxCell>
      </root>
    </mxGraphModel>
  </diagram>
</mxfile>
